<svg width="59" height="58" viewBox="0 0 59 58" fill="none" xmlns="http://www.w3.org/2000/svg">
<path d="M56.5361 19.637C55.4487 20.136 54.2992 20.4869 53.1185 20.6803H52.7228C51.489 20.8711 50.2332 20.8711 48.9994 20.6803H45.7617C46.3725 23.4027 46.6921 26.1824 46.715 28.9724C46.7058 31.9573 46.3619 34.9318 45.6898 37.8401H52.8847C52.4653 38.9596 51.9664 40.0476 51.3917 41.0958H44.8084C43.5772 44.9502 41.757 48.5907 39.4122 51.8882C37.6819 52.6423 35.8716 53.1975 34.016 53.543C37.3391 49.9321 39.8967 45.6858 41.5347 41.0599H30.8862V53.9208H27.8464V41.0419H17.1439C18.7797 45.6742 21.3375 49.9268 24.6626 53.543C22.8453 53.2012 21.0716 52.6583 19.3744 51.9242C17.0213 48.5991 15.2008 44.9276 13.9782 41.0419H7.35886C6.78425 39.9936 6.28532 38.9056 5.86592 37.7862H13.0608C12.3867 34.8961 12.0367 31.94 12.0176 28.9724C12.0186 26.2217 12.3079 23.4786 12.881 20.7882H5.52416C5.90243 19.6721 6.35925 18.5841 6.89119 17.5325H13.7444C15.0302 13.2498 17.0244 9.21275 19.6442 5.58894C21.3054 4.90059 23.0363 4.39399 24.8065 4.078C21.2283 7.91838 18.5278 12.4908 16.8921 17.4785H27.8464V3.79021H30.8862V17.5325H41.8405V17.2987C39.4241 15.0613 37.9135 12.0145 37.5955 8.73671C36.5201 7.11468 35.3171 5.5809 33.998 4.14995C35.2566 4.39247 36.4953 4.72918 37.7034 5.15724C37.8973 4.00196 38.242 2.87714 38.7287 1.81161C32.5524 -0.324007 25.8344 -0.302295 19.672 1.8732C13.5097 4.04869 8.26701 8.24939 4.80035 13.7892C1.33368 19.3291 -0.152135 25.8807 0.585562 32.3741C1.32326 38.8674 4.24088 44.9187 8.8619 49.5398C13.4829 54.1608 19.5343 57.0784 26.0276 57.8161C32.521 58.5538 39.0726 57.068 44.6124 53.6013C50.1523 50.1347 54.353 44.892 56.5285 38.7296C58.704 32.5672 58.7257 25.8493 56.5901 19.673L56.5361 19.637Z" fill="#FAAF40"/>
</svg>
