<svg width="91" height="41" viewBox="0 0 91 41" fill="none" xmlns="http://www.w3.org/2000/svg">
<path d="M45.5922 24.8409C35.3814 24.8409 26.7061 27.7116 21.0397 32.2112V40.5804H70.1484V32.2112C64.482 27.7116 55.8049 24.8409 45.5922 24.8409ZM90.6796 20.5458L45.4732 0.405273L0.285645 20.5458L7.81816 23.8785V29.0045C5.92936 29.3825 5.9237 30.3394 5.9237 31.4771C5.9237 32.1491 6.15413 32.9361 6.59233 33.4073L4.00846 38.7542H13.2258L10.6646 33.4036C11.0952 32.9325 11.4484 32.2386 11.4484 31.5665C11.4484 30.4307 9.70695 29.3806 9.70695 29.0026V24.7349L19.1509 28.8365V28.4731C24.8173 23.7087 34.7732 20.6846 45.5903 20.6846C56.4112 20.6846 66.3708 23.7087 72.0372 28.4731V28.8365L90.6796 20.5458Z" fill="#FAAF40"/>
</svg>
