<svg width="49" height="46" viewBox="0 0 49 46" fill="none" xmlns="http://www.w3.org/2000/svg">
<path d="M30.8976 16.7604C33.1958 16.7604 35.0611 18.6256 35.0611 20.9239V28.6561H35.0515V31.0352H13.6393V23.8978H13.6441V20.9239C13.6441 18.6256 15.5069 16.7604 17.8076 16.7604H30.8976ZM48.1368 20.9239C48.1368 19.8197 47.6981 18.7607 46.9173 17.9798C46.1365 17.199 45.0775 16.7604 43.9733 16.7604H35.9437C36.8787 17.8905 37.4402 19.3418 37.4402 20.9239V23.8978H37.4307V31.0352H46.3524C46.8257 31.0352 47.2795 30.8472 47.6142 30.5126C47.9488 30.1779 48.1368 29.7241 48.1368 29.2509V20.9239ZM11.2602 28.6561H11.2649V20.9239L11.2864 20.4005C11.3934 19.0206 11.9287 17.7644 12.7614 16.7604H4.71756L4.37497 16.7747C3.33362 16.8606 2.36267 17.335 1.65486 18.1037C0.947041 18.8723 0.554116 19.879 0.554077 20.9239V29.2509C0.554077 30.2358 1.35347 31.0352 2.33843 31.0352H11.2602V28.6561ZM24.3454 0.106445C26.2384 0.106445 28.0538 0.85842 29.3923 2.19694C30.7309 3.53547 31.4828 5.35089 31.4828 7.24385C31.4828 9.13681 30.7309 10.9522 29.3923 12.2908C28.0538 13.6293 26.2384 14.3813 24.3454 14.3813C22.4525 14.3813 20.637 13.6293 19.2985 12.2908C17.96 10.9522 17.208 9.13681 17.208 7.24385C17.208 5.35089 17.96 3.53547 19.2985 2.19694C20.637 0.85842 22.4525 0.106445 24.3454 0.106445ZM39.8098 2.48558C41.3873 2.48558 42.9001 3.11223 44.0156 4.22766C45.131 5.3431 45.7576 6.85595 45.7576 8.43342C45.7576 10.0109 45.131 11.5237 44.0156 12.6392C42.9001 13.7546 41.3873 14.3813 39.8098 14.3813C38.2323 14.3813 36.7195 13.7546 35.6041 12.6392C34.4886 11.5237 33.862 10.0109 33.862 8.43342C33.862 6.85595 34.4886 5.3431 35.6041 4.22766C36.7195 3.11223 38.2323 2.48558 39.8098 2.48558ZM8.88105 2.48558C10.4585 2.48558 11.9714 3.11223 13.0868 4.22766C14.2022 5.3431 14.8289 6.85595 14.8289 8.43342C14.8289 10.0109 14.2022 11.5237 13.0868 12.6392C11.9714 13.7546 10.4585 14.3813 8.88105 14.3813C7.30359 14.3813 5.79073 13.7546 4.67529 12.6392C3.55986 11.5237 2.93321 10.0109 2.93321 8.43342C2.93321 6.85595 3.55986 5.3431 4.67529 4.22766C5.79073 3.11223 7.30359 2.48558 8.88105 2.48558ZM0.554077 35.1987C0.554077 34.7254 0.742071 34.2716 1.0767 33.937C1.41133 33.6023 1.86519 33.4143 2.33843 33.4143H46.3524C46.8257 33.4143 47.2795 33.6023 47.6142 33.937C47.9488 34.2716 48.1368 34.7254 48.1368 35.1987V36.3883C48.1368 38.7545 47.1968 41.0237 45.5237 42.6969C43.8505 44.37 41.5812 45.31 39.215 45.31H9.47583C7.10964 45.31 4.84035 44.37 3.1672 42.6969C1.49405 41.0237 0.554077 38.7545 0.554077 36.3883V35.1987Z" fill="#FAAF40"/>
</svg>
