<svg width="59" height="59" viewBox="0 0 59 59" fill="none" xmlns="http://www.w3.org/2000/svg">
<path fill-rule="evenodd" clip-rule="evenodd" d="M47.0629 24.3102L31.588 16.5727V11.9651H43.1941V0.358887H27.7192V16.5727L12.2444 24.3102V31.3087H4.50691V54.521H0.638184V58.3897H23.8505V42.9148H35.4567V58.3897H58.669V54.521H54.8003V31.3087H47.0629V24.3102ZM50.9316 54.521V35.1774H47.0629V54.521H50.9316ZM12.2444 54.521H8.37563V35.1774H12.2444V54.521ZM23.8505 33.243C23.8505 31.704 24.4619 30.2279 25.5502 29.1396C26.6385 28.0513 28.1145 27.44 29.6536 27.44C31.1927 27.44 32.6687 28.0513 33.757 29.1396C34.8453 30.2279 35.4567 31.704 35.4567 33.243C35.4567 34.7821 34.8453 36.2581 33.757 37.3464C32.6687 38.4347 31.1927 39.0461 29.6536 39.0461C28.1145 39.0461 26.6385 38.4347 25.5502 37.3464C24.4619 36.2581 23.8505 34.7821 23.8505 33.243Z" fill="#FAAF40"/>
</svg>
