<svg width="42" height="53" viewBox="0 0 42 53" fill="none" xmlns="http://www.w3.org/2000/svg">
<path fill-rule="evenodd" clip-rule="evenodd" d="M0.554077 4.92744V48.572C0.554077 49.7295 1.0139 50.8396 1.8324 51.6581C2.65089 52.4766 3.761 52.9364 4.91853 52.9364H36.9245C38.082 52.9364 39.1921 52.4766 40.0106 51.6581C40.8291 50.8396 41.2889 49.7295 41.2889 48.572V4.92744C41.2889 3.76992 40.8291 2.6598 40.0106 1.84131C39.1921 1.02281 38.082 0.562988 36.9245 0.562988H4.91853C3.761 0.562988 2.65089 1.02281 1.8324 1.84131C1.0139 2.6598 0.554077 3.76992 0.554077 4.92744ZM20.9215 13.6563C20.9215 13.2705 21.0748 12.9005 21.3476 12.6276C21.6204 12.3548 21.9905 12.2015 22.3763 12.2015H34.0149C34.4007 12.2015 34.7707 12.3548 35.0436 12.6276C35.3164 12.9005 35.4697 13.2705 35.4697 13.6563C35.4697 14.0422 35.3164 14.4122 35.0436 14.6851C34.7707 14.9579 34.4007 15.1112 34.0149 15.1112H22.3763C21.9905 15.1112 21.6204 14.9579 21.3476 14.6851C21.0748 14.4122 20.9215 14.0422 20.9215 13.6563ZM22.3763 18.0208C21.9905 18.0208 21.6204 18.1741 21.3476 18.4469C21.0748 18.7197 20.9215 19.0898 20.9215 19.4756C20.9215 19.8615 21.0748 20.2315 21.3476 20.5043C21.6204 20.7772 21.9905 20.9304 22.3763 20.9304H34.0149C34.4007 20.9304 34.7707 20.7772 35.0436 20.5043C35.3164 20.2315 35.4697 19.8615 35.4697 19.4756C35.4697 19.0898 35.3164 18.7197 35.0436 18.4469C34.7707 18.1741 34.4007 18.0208 34.0149 18.0208H22.3763ZM20.9215 32.569C20.9215 32.1831 21.0748 31.8131 21.3476 31.5403C21.6204 31.2674 21.9905 31.1141 22.3763 31.1141H34.0149C34.4007 31.1141 34.7707 31.2674 35.0436 31.5403C35.3164 31.8131 35.4697 32.1831 35.4697 32.569C35.4697 32.9548 35.3164 33.3248 35.0436 33.5977C34.7707 33.8705 34.4007 34.0238 34.0149 34.0238H22.3763C21.9905 34.0238 21.6204 33.8705 21.3476 33.5977C21.0748 33.3248 20.9215 32.9548 20.9215 32.569ZM22.3763 36.9334C21.9905 36.9334 21.6204 37.0867 21.3476 37.3595C21.0748 37.6324 20.9215 38.0024 20.9215 38.3882C20.9215 38.7741 21.0748 39.1441 21.3476 39.4169C21.6204 39.6898 21.9905 39.843 22.3763 39.843H34.0149C34.4007 39.843 34.7707 39.6898 35.0436 39.4169C35.3164 39.1441 35.4697 38.7741 35.4697 38.3882C35.4697 38.0024 35.3164 37.6324 35.0436 37.3595C34.7707 37.0867 34.4007 36.9334 34.0149 36.9334H22.3763ZM9.28298 32.569V36.9334H13.6474V32.569H9.28298ZM7.82816 29.6593H15.1022C15.4881 29.6593 15.8581 29.8126 16.131 30.0854C16.4038 30.3583 16.5571 30.7283 16.5571 31.1141V38.3882C16.5571 38.7741 16.4038 39.1441 16.131 39.4169C15.8581 39.6898 15.4881 39.843 15.1022 39.843H7.82816C7.44232 39.843 7.07228 39.6898 6.79945 39.4169C6.52662 39.1441 6.37334 38.7741 6.37334 38.3882V31.1141C6.37334 30.7283 6.52662 30.3583 6.79945 30.0854C7.07228 29.8126 7.44232 29.6593 7.82816 29.6593ZM17.5856 14.6849C17.8506 14.4105 17.9973 14.043 17.9939 13.6616C17.9906 13.2801 17.8376 12.9152 17.5679 12.6455C17.2982 12.3758 16.9333 12.2228 16.5518 12.2195C16.1704 12.2161 15.8029 12.3628 15.5285 12.6278L10.7378 17.4185L8.85672 15.5374C8.58233 15.2724 8.21485 15.1258 7.8334 15.1291C7.45195 15.1324 7.08706 15.2854 6.81733 15.5551C6.54759 15.8249 6.39459 16.1898 6.39128 16.5712C6.38796 16.9527 6.5346 17.3202 6.79961 17.5945L10.7378 21.5327L17.5856 14.6849Z" fill="#FAAF40"/>
</svg>
