<svg width="46" height="59" viewBox="0 0 46 59" fill="none" xmlns="http://www.w3.org/2000/svg">
<path fill-rule="evenodd" clip-rule="evenodd" d="M0.842041 5.21928V53.4716C0.842041 54.7514 1.35041 55.9787 2.25532 56.8836C3.16023 57.7885 4.38754 58.2969 5.66728 58.2969H26.5766V52.6111C25.3501 51.903 24.3915 50.8099 23.8495 49.5015C23.3076 48.193 23.2125 46.7423 23.579 45.3743C23.9456 44.0063 24.7533 42.7974 25.8769 41.9353C27.0005 41.0731 28.3772 40.6058 29.7935 40.6058C31.2097 40.6058 32.5864 41.0731 33.71 41.9353C34.8336 42.7974 35.6413 44.0063 36.0079 45.3743C36.3744 46.7423 36.2794 48.193 35.7374 49.5015C35.1954 50.8099 34.2368 51.903 33.0103 52.6111V58.2969H41.0523C42.3321 58.2969 43.5594 57.7885 44.4643 56.8836C45.3692 55.9787 45.8776 54.7514 45.8776 53.4716V5.21928C45.8776 3.93955 45.3692 2.71223 44.4643 1.80732C43.5594 0.902415 42.3321 0.394043 41.0523 0.394043H5.66728C4.38754 0.394043 3.16023 0.902415 2.25532 1.80732C1.35041 2.71223 0.842041 3.93955 0.842041 5.21928ZM29.7935 50.2548C30.6466 50.2548 31.4648 49.9159 32.0681 49.3126C32.6714 48.7094 33.0103 47.8911 33.0103 47.038C33.0103 46.1848 32.6714 45.3666 32.0681 44.7633C31.4648 44.1601 30.6466 43.8212 29.7935 43.8212C28.9403 43.8212 28.1221 44.1601 27.5188 44.7633C26.9155 45.3666 26.5766 46.1848 26.5766 47.038C26.5766 47.8911 26.9155 48.7094 27.5188 49.3126C28.1221 49.9159 28.9403 50.2548 29.7935 50.2548ZM13.7093 11.6529C13.7093 11.2263 13.8788 10.8172 14.1804 10.5156C14.4821 10.214 14.8912 10.0445 15.3177 10.0445H31.4019C31.8284 10.0445 32.2375 10.214 32.5392 10.5156C32.8408 10.8172 33.0103 11.2263 33.0103 11.6529C33.0103 12.0795 32.8408 12.4886 32.5392 12.7902C32.2375 13.0919 31.8284 13.2613 31.4019 13.2613H15.3177C14.8912 13.2613 14.4821 13.0919 14.1804 12.7902C13.8788 12.4886 13.7093 12.0795 13.7093 11.6529ZM8.8841 19.695C8.45752 19.695 8.04842 19.8644 7.74678 20.1661C7.44515 20.4677 7.27569 20.8768 7.27569 21.3034C7.27569 21.73 7.44515 22.1391 7.74678 22.4407C8.04842 22.7423 8.45752 22.9118 8.8841 22.9118H37.8355C38.2621 22.9118 38.6712 22.7423 38.9728 22.4407C39.2745 22.1391 39.4439 21.73 39.4439 21.3034C39.4439 20.8768 39.2745 20.4677 38.9728 20.1661C38.6712 19.8644 38.2621 19.695 37.8355 19.695H8.8841ZM7.27569 27.737C7.27569 27.3105 7.44515 26.9014 7.74678 26.5997C8.04842 26.2981 8.45752 26.1286 8.8841 26.1286H37.8355C38.2621 26.1286 38.6712 26.2981 38.9728 26.5997C39.2745 26.9014 39.4439 27.3105 39.4439 27.737C39.4439 28.1636 39.2745 28.5727 38.9728 28.8744C38.6712 29.176 38.2621 29.3455 37.8355 29.3455H8.8841C8.45752 29.3455 8.04842 29.176 7.74678 28.8744C7.44515 28.5727 7.27569 28.1636 7.27569 27.737ZM8.8841 32.5623C8.45752 32.5623 8.04842 32.7317 7.74678 33.0334C7.44515 33.335 7.27569 33.7441 7.27569 34.1707C7.27569 34.5973 7.44515 35.0064 7.74678 35.308C8.04842 35.6096 8.45752 35.7791 8.8841 35.7791H37.8355C38.2621 35.7791 38.6712 35.6096 38.9728 35.308C39.2745 35.0064 39.4439 34.5973 39.4439 34.1707C39.4439 33.7441 39.2745 33.335 38.9728 33.0334C38.6712 32.7317 38.2621 32.5623 37.8355 32.5623H8.8841Z" fill="#FAAF40"/>
</svg>
